<svg xmlns="http://www.w3.org/2000/svg" width="42.881" height="27.867" viewBox="0 0 42.881 27.867">
  <g id="menu_1_" data-name="menu (1)" transform="translate(0.5 -9)">
    <g id="Group_50" data-name="Group 50" transform="translate(0 9.5)">
      <path id="Path_16" data-name="Path 16" d="M1.58,12.661H40.3a1.58,1.58,0,1,0,0-3.161H1.58a1.58,1.58,0,1,0,0,3.161Z" transform="translate(0 -9.5)" stroke="#000" stroke-width="1"/>
      <path id="Path_17" data-name="Path 17" d="M1.58,27.661H40.3a1.58,1.58,0,0,0,0-3.161H1.58a1.58,1.58,0,0,0,0,3.161Z" transform="translate(0 -12.647)" stroke="#000" stroke-width="1"/>
      <path id="Path_18" data-name="Path 18" d="M1.58,42.661H40.3a1.58,1.58,0,0,0,0-3.161H1.58a1.58,1.58,0,0,0,0,3.161Z" transform="translate(0 -15.794)" stroke="#000" stroke-width="1"/>
    </g>
  </g>
</svg>
